<svg width="42" height="42" viewBox="0 0 42 42" fill="none" xmlns="http://www.w3.org/2000/svg">
<path d="M21 0C9.3975 0 0 9.64148 0 21.5332C0 31.0491 6.0165 39.1186 14.3587 41.9628C15.4087 42.1656 15.7937 41.4998 15.7937 40.9274C15.7937 40.416 15.7763 39.0612 15.7675 37.2668C9.926 38.5659 8.694 34.3777 8.694 34.3777C7.7385 31.8924 6.35775 31.2285 6.35775 31.2285C4.4555 29.8934 6.50475 29.9204 6.50475 29.9204C8.6135 30.0711 9.72125 32.1383 9.72125 32.1383C11.5938 35.4311 14.637 34.48 15.8375 33.9291C16.0265 32.5366 16.5673 31.5874 17.1675 31.0491C12.5038 30.5107 7.602 28.6589 7.602 20.4081C7.602 18.0574 8.41575 16.1373 9.76325 14.63C9.527 14.0863 8.81825 11.8971 9.947 8.93089C9.947 8.93089 11.7058 8.35308 15.722 11.138C17.402 10.6589 19.187 10.4221 20.972 10.4113C22.757 10.4221 24.542 10.6589 26.222 11.138C30.212 8.35308 31.9707 8.93089 31.9707 8.93089C33.0995 11.8971 32.3908 14.0863 32.1807 14.63C33.5195 16.1373 34.3332 18.0574 34.3332 20.4081C34.3332 28.6804 29.4245 30.5018 24.752 31.0311C25.487 31.6771 26.1695 32.9978 26.1695 35.0148C26.1695 37.8966 26.1432 40.2114 26.1432 40.9113C26.1432 41.4765 26.5107 42.1494 27.587 41.9341C35.9888 39.1096 42 31.0347 42 21.5332C42 9.64148 32.5972 0 21 0Z" fill="white"/>
</svg>
